<svg width="180" height="180" viewBox="0 0 180 180" fill="none" xmlns="http://www.w3.org/2000/svg">
<g clip-path="url(#clip0_570_306)">
<rect width="180" height="180" fill="black"/>
<path d="M30 47C30 38.7157 36.7157 32 45 32H105V47H30V47Z" fill="white"/>
<rect x="120" y="32" width="15" height="15" fill="white"/>
<path d="M135 47H150V77C150 85.2843 143.284 92 135 92V92V47Z" fill="white"/>
<path d="M60 92H75V152V152C66.7157 152 60 145.284 60 137V92Z" fill="white"/>
<rect x="105" y="92" width="15" height="45" fill="white"/>
<rect x="30" y="47" width="15" height="30" fill="white"/>
<rect x="105" y="47" width="15" height="15" fill="white"/>
<rect x="105" y="77" width="30" height="15" fill="white"/>
<rect x="45" y="77" width="30" height="15" fill="white"/>
<rect x="75" y="137" width="30" height="15" fill="white"/>
</g>
<defs>
<clipPath id="clip0_570_306">
<rect width="180" height="180" fill="white"/>
</clipPath>
</defs>
</svg>
