<svg width="22" height="22" viewBox="0 0 22 22" fill="none" xmlns="http://www.w3.org/2000/svg">
<path d="M10.9905 1.83337C5.93051 1.83337 1.83301 5.94004 1.83301 11C1.83301 16.06 5.93051 20.1667 10.9905 20.1667C16.0597 20.1667 20.1663 16.06 20.1663 11C20.1663 5.94004 16.0597 1.83337 10.9905 1.83337ZM17.343 7.33337H14.6388C14.3455 6.18754 13.9238 5.08754 13.3738 4.07004C15.0605 4.64754 16.463 5.82087 17.343 7.33337ZM10.9997 3.70337C11.7605 4.80337 12.3563 6.02254 12.7505 7.33337H9.24884C9.64301 6.02254 10.2388 4.80337 10.9997 3.70337ZM3.90467 12.8334C3.75801 12.2467 3.66634 11.6325 3.66634 11C3.66634 10.3675 3.75801 9.75337 3.90467 9.16671H7.00301C6.92967 9.77171 6.87467 10.3767 6.87467 11C6.87467 11.6234 6.92967 12.2284 7.00301 12.8334H3.90467ZM4.65634 14.6667H7.36051C7.65384 15.8125 8.07551 16.9125 8.62551 17.93C6.93884 17.3525 5.53634 16.1884 4.65634 14.6667ZM7.36051 7.33337H4.65634C5.53634 5.81171 6.93884 4.64754 8.62551 4.07004C8.07551 5.08754 7.65384 6.18754 7.36051 7.33337ZM10.9997 18.2967C10.2388 17.1967 9.64301 15.9775 9.24884 14.6667H12.7505C12.3563 15.9775 11.7605 17.1967 10.9997 18.2967ZM13.1447 12.8334H8.85467C8.77217 12.2284 8.70801 11.6234 8.70801 11C8.70801 10.3767 8.77217 9.76254 8.85467 9.16671H13.1447C13.2272 9.76254 13.2913 10.3767 13.2913 11C13.2913 11.6234 13.2272 12.2284 13.1447 12.8334ZM13.3738 17.93C13.9238 16.9125 14.3455 15.8125 14.6388 14.6667H17.343C16.463 16.1792 15.0605 17.3525 13.3738 17.93ZM14.9963 12.8334C15.0697 12.2284 15.1247 11.6234 15.1247 11C15.1247 10.3767 15.0697 9.77171 14.9963 9.16671H18.0947C18.2413 9.75337 18.333 10.3675 18.333 11C18.333 11.6325 18.2413 12.2467 18.0947 12.8334H14.9963Z" fill="white"/>
</svg>
