<svg width="25" height="25" viewBox="0 0 25 25" fill="none" xmlns="http://www.w3.org/2000/svg">
<path d="M12.4893 2.08337C6.73926 2.08337 2.08301 6.75004 2.08301 12.5C2.08301 18.25 6.73926 22.9167 12.4893 22.9167C18.2497 22.9167 22.9163 18.25 22.9163 12.5C22.9163 6.75004 18.2497 2.08337 12.4893 2.08337ZM19.708 8.33337H16.6351C16.3018 7.03129 15.8226 5.78129 15.1976 4.62504C17.1143 5.28129 18.708 6.61462 19.708 8.33337ZM12.4997 4.20837C13.3643 5.45837 14.0413 6.84379 14.4893 8.33337H10.5101C10.958 6.84379 11.6351 5.45837 12.4997 4.20837ZM4.43717 14.5834C4.27051 13.9167 4.16634 13.2188 4.16634 12.5C4.16634 11.7813 4.27051 11.0834 4.43717 10.4167H7.95801C7.87467 11.1042 7.81217 11.7917 7.81217 12.5C7.81217 13.2084 7.87467 13.8959 7.95801 14.5834H4.43717ZM5.29134 16.6667H8.36426C8.69759 17.9688 9.17676 19.2188 9.80176 20.375C7.88509 19.7188 6.29134 18.3959 5.29134 16.6667ZM8.36426 8.33337H5.29134C6.29134 6.60421 7.88509 5.28129 9.80176 4.62504C9.17676 5.78129 8.69759 7.03129 8.36426 8.33337ZM12.4997 20.7917C11.6351 19.5417 10.958 18.1563 10.5101 16.6667H14.4893C14.0413 18.1563 13.3643 19.5417 12.4997 20.7917ZM14.9372 14.5834H10.0622C9.96842 13.8959 9.89551 13.2084 9.89551 12.5C9.89551 11.7917 9.96842 11.0938 10.0622 10.4167H14.9372C15.0309 11.0938 15.1038 11.7917 15.1038 12.5C15.1038 13.2084 15.0309 13.8959 14.9372 14.5834ZM15.1976 20.375C15.8226 19.2188 16.3018 17.9688 16.6351 16.6667H19.708C18.708 18.3855 17.1143 19.7188 15.1976 20.375ZM17.0413 14.5834C17.1247 13.8959 17.1872 13.2084 17.1872 12.5C17.1872 11.7917 17.1247 11.1042 17.0413 10.4167H20.5622C20.7288 11.0834 20.833 11.7813 20.833 12.5C20.833 13.2188 20.7288 13.9167 20.5622 14.5834H17.0413Z" fill="white"/>
</svg>
