<svg width="32" height="32" viewBox="0 0 32 32" fill="none" xmlns="http://www.w3.org/2000/svg">
<g clip-path="url(#clip0_593_572)">
<path d="M0 4C0 1.79086 1.79086 0 4 0H20V4H0Z" fill="white"/>
<path d="M28 0H24V4H28V0Z" fill="white"/>
<path d="M28 4H32V12C32 14.2091 30.2091 16 28 16V4Z" fill="white"/>
<path d="M8 16H12V32C9.79086 32 8 30.2091 8 28V16Z" fill="white"/>
<path d="M24 16H20V28H24V16Z" fill="white"/>
<path d="M4 4H0V12H4V4Z" fill="white"/>
<path d="M24 4H20V8H24V4Z" fill="white"/>
<path d="M28 12H20V16H28V12Z" fill="white"/>
<path d="M12 12H4V16H12V12Z" fill="white"/>
<path d="M20 28H12V32H20V28Z" fill="white"/>
</g>
<defs>
<clipPath id="clip0_593_572">
<rect width="32" height="32" fill="white"/>
</clipPath>
</defs>
</svg>
